<svg width="245" height="67" viewBox="0 0 245 67" fill="none" xmlns="http://www.w3.org/2000/svg">
<path d="M8.60011 2.008H11.3721V12.592C11.3721 13.0587 11.3628 13.572 11.3441 14.132C11.3441 14.692 11.3348 15.2427 11.3161 15.784C11.2974 16.3253 11.2694 16.8107 11.2321 17.24C11.2134 17.6507 11.1948 17.9587 11.1761 18.164H11.2881L21.7601 2.008H25.2321V22H22.4601V11.5C22.4601 10.996 22.4694 10.4547 22.4881 9.876C22.5068 9.27867 22.5254 8.7 22.5441 8.14C22.5814 7.58 22.6094 7.09467 22.6281 6.684C22.6468 6.25467 22.6654 5.94667 22.6841 5.76H22.5721L12.0721 22H8.60011V2.008ZM33.1611 6.908V13.04H40.6091V6.908H43.5771V22H40.6091V15.42H33.1611V22H30.1931V6.908H33.1611ZM57.7887 6.908V9.288H51.1807V22H48.2127V6.908H57.7887ZM66.5608 6.628C68.4648 6.628 69.8834 7.048 70.8168 7.888C71.7501 8.70933 72.2168 10.0067 72.2168 11.78V22H70.1168L69.5288 19.9H69.4168C68.9874 20.4413 68.5394 20.8893 68.0728 21.244C67.6248 21.5987 67.1021 21.86 66.5048 22.028C65.9261 22.196 65.2168 22.28 64.3768 22.28C63.4808 22.28 62.6688 22.1213 61.9408 21.804C61.2314 21.468 60.6714 20.964 60.2608 20.292C59.8501 19.6013 59.6448 18.7427 59.6448 17.716C59.6448 16.1853 60.2234 15.0187 61.3808 14.216C62.5568 13.4133 64.3394 12.9747 66.7288 12.9L69.3048 12.816V11.976C69.3048 10.856 69.0528 10.072 68.5488 9.624C68.0448 9.176 67.3354 8.952 66.4208 8.952C65.6368 8.952 64.8901 9.064 64.1808 9.288C63.4714 9.512 62.7994 9.78267 62.1648 10.1L61.2128 7.944C61.9221 7.57067 62.7341 7.26267 63.6488 7.02C64.5821 6.75867 65.5528 6.628 66.5608 6.628ZM67.2608 14.804C65.5434 14.8787 64.3488 15.168 63.6768 15.672C63.0234 16.1573 62.6968 16.848 62.6968 17.744C62.6968 18.528 62.9301 19.0973 63.3968 19.452C63.8821 19.8067 64.4888 19.984 65.2168 19.984C66.3928 19.984 67.3634 19.6573 68.1288 19.004C68.8941 18.3507 69.2768 17.3707 69.2768 16.064V14.748L67.2608 14.804ZM88.8829 22H85.8869V9.288H81.6309C81.4442 11.6027 81.2109 13.5907 80.9309 15.252C80.6696 16.8947 80.3242 18.2293 79.8949 19.256C79.4842 20.2827 78.9709 21.0387 78.3549 21.524C77.7576 21.9907 77.0389 22.224 76.1989 22.224C75.9002 22.224 75.6109 22.196 75.3309 22.14C75.0509 22.1027 74.8082 22.0373 74.6029 21.944V19.676C74.7336 19.7133 74.8736 19.7507 75.0229 19.788C75.1909 19.8067 75.3589 19.816 75.5269 19.816C75.9002 19.816 76.2362 19.6667 76.5349 19.368C76.8522 19.0693 77.1322 18.6027 77.3749 17.968C77.6362 17.3333 77.8696 16.512 78.0749 15.504C78.2989 14.4773 78.4856 13.2547 78.6349 11.836C78.8029 10.4173 78.9522 8.77467 79.0829 6.908H88.8829V22ZM94.8653 22H91.5053L95.7613 15.784C95.1826 15.5973 94.6319 15.336 94.1093 15C93.6053 14.664 93.1946 14.1973 92.8773 13.6C92.5599 13.0027 92.4013 12.2747 92.4013 11.416C92.4013 9.96 92.9146 8.84933 93.9413 8.084C94.9679 7.3 96.3119 6.908 97.9733 6.908H104.805V22H101.837V16.12H98.5893L94.8653 22ZM95.2853 11.444C95.2853 12.2467 95.5839 12.8533 96.1813 13.264C96.7786 13.656 97.6093 13.852 98.6733 13.852H101.837V9.204H98.1693C97.1426 9.204 96.4053 9.41867 95.9573 9.848C95.5093 10.2773 95.2853 10.8093 95.2853 11.444ZM124.835 27.292H122.035V22H109.463V6.908H112.431V19.62H119.711V6.908H122.679V19.648H124.835V27.292ZM130.474 15.14C130.474 15.364 130.465 15.6533 130.446 16.008C130.428 16.3627 130.409 16.736 130.39 17.128C130.372 17.5013 130.344 17.856 130.306 18.192C130.288 18.5093 130.269 18.7613 130.25 18.948L138.006 6.908H141.618V22H138.818V13.964C138.818 13.6093 138.828 13.1707 138.846 12.648C138.865 12.1253 138.884 11.6213 138.902 11.136C138.94 10.632 138.968 10.2493 138.986 9.988L131.286 22H127.646V6.908H130.474V15.14ZM159.595 14.44C159.595 15.6907 159.427 16.8013 159.091 17.772C158.755 18.7427 158.279 19.564 157.663 20.236C157.047 20.908 156.3 21.4213 155.423 21.776C154.545 22.112 153.556 22.28 152.455 22.28C151.447 22.28 150.513 22.112 149.655 21.776C148.796 21.4213 148.049 20.908 147.415 20.236C146.799 19.564 146.313 18.7427 145.959 17.772C145.604 16.8013 145.427 15.6813 145.427 14.412C145.427 12.7507 145.707 11.3413 146.267 10.184C146.845 9.02667 147.667 8.14933 148.731 7.552C149.813 6.936 151.083 6.628 152.539 6.628C153.92 6.628 155.133 6.936 156.179 7.552C157.243 8.14933 158.073 9.02667 158.671 10.184C159.287 11.3413 159.595 12.76 159.595 14.44ZM148.479 14.44C148.479 15.56 148.619 16.5307 148.899 17.352C149.179 18.1547 149.617 18.7707 150.215 19.2C150.812 19.6293 151.577 19.844 152.511 19.844C153.444 19.844 154.209 19.6293 154.807 19.2C155.404 18.7707 155.843 18.1547 156.123 17.352C156.403 16.5307 156.543 15.56 156.543 14.44C156.543 13.2827 156.393 12.312 156.095 11.528C155.815 10.744 155.376 10.1467 154.779 9.736C154.2 9.30667 153.435 9.092 152.483 9.092C151.083 9.092 150.065 9.55867 149.431 10.492C148.796 11.4253 148.479 12.7413 148.479 14.44ZM166.325 6.908V13.04H173.773V6.908H176.741V22H173.773V15.42H166.325V22H163.357V6.908H166.325ZM184.345 6.908V13.04H191.793V6.908H194.761V22H191.793V15.42H184.345V22H181.377V6.908H184.345ZM199.396 22V6.908H202.364V12.984H205.696C207.078 12.984 208.216 13.152 209.112 13.488C210.008 13.8053 210.671 14.2813 211.1 14.916C211.53 15.5507 211.744 16.3533 211.744 17.324C211.744 18.276 211.53 19.1067 211.1 19.816C210.69 20.5067 210.036 21.048 209.14 21.44C208.263 21.8133 207.106 22 205.668 22H199.396ZM205.444 19.76C206.434 19.76 207.236 19.592 207.852 19.256C208.487 18.9013 208.804 18.2947 208.804 17.436C208.804 16.6147 208.515 16.0547 207.936 15.756C207.358 15.4387 206.527 15.28 205.444 15.28H202.364V19.76H205.444ZM214.152 22V6.908H217.12V22H214.152ZM234.643 0.579999C234.569 1.532 234.326 2.344 233.915 3.016C233.523 3.66933 232.917 4.17333 232.095 4.528C231.293 4.864 230.238 5.032 228.931 5.032C227.587 5.032 226.514 4.864 225.711 4.528C224.927 4.17333 224.358 3.66933 224.003 3.016C223.649 2.36267 223.434 1.55067 223.359 0.579999H226.075C226.169 1.60667 226.43 2.288 226.859 2.624C227.307 2.96 228.017 3.128 228.987 3.128C229.827 3.128 230.499 2.95067 231.003 2.596C231.507 2.22267 231.806 1.55067 231.899 0.579999H234.643ZM224.591 15.14C224.591 15.364 224.582 15.6533 224.563 16.008C224.545 16.3627 224.526 16.736 224.507 17.128C224.489 17.5013 224.461 17.856 224.423 18.192C224.405 18.5093 224.386 18.7613 224.367 18.948L232.123 6.908H235.735V22H232.935V13.964C232.935 13.6093 232.945 13.1707 232.963 12.648C232.982 12.1253 233.001 11.6213 233.019 11.136C233.057 10.632 233.085 10.2493 233.103 9.988L225.403 22H221.763V6.908H224.591V15.14ZM7.50483 44.404C9.55816 44.404 11.1262 44.852 12.2088 45.748C13.3102 46.6253 13.8608 47.9787 13.8608 49.808V60H10.9488L10.1368 57.928H10.0248C9.5955 58.4693 9.1475 58.9173 8.68083 59.272C8.23283 59.6267 7.71016 59.8787 7.11283 60.028C6.53416 60.196 5.81549 60.28 4.95683 60.28C4.06083 60.28 3.24883 60.112 2.52083 59.776C1.81149 59.4213 1.25149 58.8893 0.840828 58.18C0.430162 57.452 0.224828 56.5373 0.224828 55.436C0.224828 53.812 0.794162 52.6173 1.93283 51.852C3.07149 51.068 4.7795 50.6387 7.05683 50.564L9.71683 50.48V49.808C9.71683 49.0053 9.50216 48.4173 9.07283 48.044C8.66216 47.6707 8.0835 47.484 7.33683 47.484C6.59016 47.484 5.86216 47.596 5.15283 47.82C4.4435 48.0253 3.73416 48.2867 3.02483 48.604L1.65283 45.776C2.47416 45.3467 3.3795 45.0107 4.36883 44.768C5.37683 44.5253 6.42216 44.404 7.50483 44.404ZM8.09283 52.972C6.74883 53.0093 5.8155 53.252 5.29283 53.7C4.77016 54.148 4.50883 54.736 4.50883 55.464C4.50883 56.0987 4.69549 56.556 5.06883 56.836C5.44216 57.0973 5.9275 57.228 6.52483 57.228C7.42083 57.228 8.17683 56.9667 8.79283 56.444C9.40883 55.9027 9.71683 55.1467 9.71683 54.176V52.916L8.09283 52.972ZM22.3033 44.712V50.592H28.1273V44.712H32.2993V60H28.1273V53.7H22.3033V60H18.1313V44.712H22.3033ZM49.3263 47.848H44.3143V60H40.1423V47.848H35.1303V44.712H49.3263V47.848ZM56.1789 50.76C56.1789 51.0773 56.1602 51.4693 56.1229 51.936C56.1042 52.4027 56.0762 52.8787 56.0389 53.364C56.0202 53.8493 55.9922 54.2787 55.9549 54.652C55.9176 55.0253 55.8896 55.2867 55.8709 55.436L62.9269 44.712H67.9389V60H63.9069V53.896C63.9069 53.392 63.9256 52.8413 63.9629 52.244C64.0002 51.628 64.0376 51.0587 64.0749 50.536C64.1309 49.9947 64.1682 49.584 64.1869 49.304L57.1589 60H52.1469V44.712H56.1789V50.76ZM75.4352 52.188L70.5072 44.712H75.2392L78.2072 49.584L81.2032 44.712H85.9352L80.9512 52.188L86.1592 60H81.4272L78.2072 54.764L74.9872 60H70.2552L75.4352 52.188ZM101.828 52.328C101.828 53.5973 101.651 54.7267 101.296 55.716C100.96 56.7053 100.465 57.5453 99.8119 58.236C99.1772 58.908 98.4025 59.4213 97.4879 59.776C96.5732 60.112 95.5372 60.28 94.3799 60.28C93.3159 60.28 92.3265 60.112 91.4119 59.776C90.5159 59.4213 89.7412 58.908 89.0879 58.236C88.4345 57.5453 87.9212 56.7053 87.5479 55.716C87.1932 54.7267 87.0159 53.5973 87.0159 52.328C87.0159 50.6293 87.3145 49.2013 87.9119 48.044C88.5092 46.868 89.3679 45.972 90.4879 45.356C91.6079 44.74 92.9332 44.432 94.4639 44.432C95.9012 44.432 97.1705 44.74 98.2719 45.356C99.3732 45.972 100.241 46.868 100.876 48.044C101.511 49.2013 101.828 50.6293 101.828 52.328ZM91.2719 52.328C91.2719 53.336 91.3745 54.1853 91.5799 54.876C91.8039 55.548 92.1492 56.0613 92.6159 56.416C93.0825 56.752 93.6892 56.92 94.4359 56.92C95.1825 56.92 95.7799 56.752 96.2279 56.416C96.6945 56.0613 97.0305 55.548 97.2359 54.876C97.4599 54.1853 97.5719 53.336 97.5719 52.328C97.5719 51.32 97.4599 50.48 97.2359 49.808C97.0305 49.136 96.6945 48.632 96.2279 48.296C95.7612 47.96 95.1545 47.792 94.4079 47.792C93.3065 47.792 92.5039 48.1747 91.9999 48.94C91.5145 49.6867 91.2719 50.816 91.2719 52.328ZM118.968 60H114.796V47.848H110.96C110.773 50.088 110.54 52.0013 110.26 53.588C109.998 55.156 109.662 56.4347 109.252 57.424C108.86 58.4133 108.356 59.1413 107.74 59.608C107.124 60.056 106.368 60.28 105.472 60.28C104.986 60.28 104.548 60.2427 104.156 60.168C103.764 60.0933 103.409 59.9813 103.092 59.832V56.5C103.297 56.5747 103.512 56.64 103.736 56.696C103.96 56.752 104.193 56.78 104.436 56.78C104.697 56.78 104.94 56.6773 105.164 56.472C105.406 56.2667 105.63 55.9027 105.836 55.38C106.06 54.8573 106.265 54.1387 106.452 53.224C106.638 52.3093 106.806 51.1613 106.956 49.78C107.124 48.38 107.273 46.6907 107.404 44.712H118.968V60ZM127.355 50.76C127.355 51.0773 127.336 51.4693 127.299 51.936C127.28 52.4027 127.252 52.8787 127.215 53.364C127.196 53.8493 127.168 54.2787 127.131 54.652C127.093 55.0253 127.065 55.2867 127.047 55.436L134.103 44.712H139.115V60H135.083V53.896C135.083 53.392 135.101 52.8413 135.139 52.244C135.176 51.628 135.213 51.0587 135.251 50.536C135.307 49.9947 135.344 49.584 135.363 49.304L128.335 60H123.323V44.712H127.355V50.76ZM147.647 44.712V50.592H153.471V44.712H157.643V60H153.471V53.7H147.647V60H143.475V44.712H147.647ZM168.314 44.432C169.733 44.432 170.946 44.7027 171.954 45.244C172.981 45.7853 173.774 46.5693 174.334 47.596C174.894 48.6227 175.174 49.8827 175.174 51.376V53.392H165.318C165.355 54.568 165.701 55.492 166.354 56.164C167.026 56.836 167.95 57.172 169.126 57.172C170.115 57.172 171.011 57.0787 171.814 56.892C172.617 56.6867 173.447 56.3787 174.306 55.968V59.188C173.559 59.5613 172.766 59.832 171.926 60C171.105 60.1867 170.106 60.28 168.93 60.28C167.399 60.28 166.046 60 164.87 59.44C163.694 58.8613 162.77 57.9933 162.098 56.836C161.426 55.6787 161.09 54.2227 161.09 52.468C161.09 50.676 161.389 49.192 161.986 48.016C162.602 46.8213 163.451 45.9253 164.534 45.328C165.617 44.7307 166.877 44.432 168.314 44.432ZM168.342 47.4C167.539 47.4 166.867 47.6613 166.326 48.184C165.803 48.7067 165.495 49.5187 165.402 50.62H171.254C171.254 50.004 171.142 49.4533 170.918 48.968C170.713 48.4827 170.395 48.1 169.966 47.82C169.537 47.54 168.995 47.4 168.342 47.4ZM187.069 44.432C188.786 44.432 190.177 45.104 191.241 46.448C192.305 47.7733 192.837 49.7333 192.837 52.328C192.837 54.064 192.585 55.5293 192.081 56.724C191.577 57.9 190.886 58.7867 190.009 59.384C189.132 59.9813 188.114 60.28 186.957 60.28C186.229 60.28 185.594 60.1867 185.053 60C184.53 59.8133 184.082 59.5707 183.709 59.272C183.336 58.9733 183.009 58.656 182.729 58.32H182.505C182.58 58.6747 182.636 59.048 182.673 59.44C182.71 59.8133 182.729 60.1867 182.729 60.56V66.72H178.557V44.712H181.945L182.533 46.7H182.729C183.009 46.2893 183.345 45.916 183.737 45.58C184.129 45.2253 184.596 44.9453 185.137 44.74C185.697 44.5347 186.341 44.432 187.069 44.432ZM185.725 47.764C184.997 47.764 184.418 47.9133 183.989 48.212C183.56 48.5107 183.242 48.968 183.037 49.584C182.85 50.1813 182.748 50.9373 182.729 51.852V52.3C182.729 53.2893 182.822 54.1293 183.009 54.82C183.196 55.492 183.513 56.0053 183.961 56.36C184.409 56.7147 185.016 56.892 185.781 56.892C186.416 56.892 186.938 56.7147 187.349 56.36C187.76 56.0053 188.068 55.4827 188.273 54.792C188.478 54.1013 188.581 53.2613 188.581 52.272C188.581 50.7787 188.348 49.6587 187.881 48.912C187.433 48.1467 186.714 47.764 185.725 47.764ZM206.832 44.712V47.848H200.448V60H196.276V44.712H206.832ZM213.679 50.76C213.679 51.0773 213.66 51.4693 213.623 51.936C213.604 52.4027 213.576 52.8787 213.539 53.364C213.52 53.8493 213.492 54.2787 213.455 54.652C213.418 55.0253 213.39 55.2867 213.371 55.436L220.427 44.712H225.439V60H221.407V53.896C221.407 53.392 221.426 52.8413 221.463 52.244C221.5 51.628 221.538 51.0587 221.575 50.536C221.631 49.9947 221.668 49.584 221.687 49.304L214.659 60H209.647V44.712H213.679V50.76ZM239.823 44.712H244.415L238.367 52.048L244.947 60H240.215L233.971 52.244V60H229.799V44.712H233.971V52.132L239.823 44.712Z" fill="#01457A"/>
</svg>
