<svg width="1335" height="110" viewBox="0 0 1335 110" fill="none" xmlns="http://www.w3.org/2000/svg">
<path d="M571.578 88.1982C407.818 77.0991 122.293 98.1081 0 110V0H1335C1245.01 151.622 776.278 102.072 571.578 88.1982Z" fill="url(#paint0_linear_0_6049)"/>
<path d="M45.4492 29.2695H61.3281V34.6602H56.0938V58H50.5469V34.6602H45.4492V29.2695ZM85.7812 48.918H68.6523C68.8997 50.4284 69.5573 51.6328 70.625 52.5312C71.7057 53.4167 73.0794 53.8594 74.7461 53.8594C76.7383 53.8594 78.4505 53.1628 79.8828 51.7695L84.375 53.8789C83.2552 55.4674 81.9141 56.6458 80.3516 57.4141C78.7891 58.1693 76.9336 58.5469 74.7852 58.5469C71.4518 58.5469 68.737 57.4987 66.6406 55.4023C64.5443 53.293 63.4961 50.6562 63.4961 47.4922C63.4961 44.25 64.5378 41.5612 66.6211 39.4258C68.7174 37.2773 71.3411 36.2031 74.4922 36.2031C77.8385 36.2031 80.5599 37.2773 82.6562 39.4258C84.7526 41.5612 85.8008 44.3867 85.8008 47.9023L85.7812 48.918ZM80.4297 44.7188C80.0781 43.5339 79.3815 42.5703 78.3398 41.8281C77.3112 41.0859 76.1133 40.7148 74.7461 40.7148C73.2617 40.7148 71.9596 41.1315 70.8398 41.9648C70.1367 42.4857 69.4857 43.4036 68.8867 44.7188H80.4297ZM95.4102 36.75V39.0938C96.3737 38.1302 97.4154 37.4076 98.5352 36.9258C99.6549 36.444 100.853 36.2031 102.129 36.2031C104.902 36.2031 107.259 37.2513 109.199 39.3477C111.139 41.444 112.109 44.1328 112.109 47.4141C112.109 50.5781 111.107 53.2279 109.102 55.3633C107.096 57.4857 104.72 58.5469 101.973 58.5469C100.749 58.5469 99.6094 58.332 98.5547 57.9023C97.5 57.4596 96.4518 56.7435 95.4102 55.7539V65.7734H90.1172V36.75H95.4102ZM101.016 41.125C99.3359 41.125 97.9427 41.6979 96.8359 42.8438C95.7292 43.9896 95.1758 45.487 95.1758 47.3359C95.1758 49.224 95.7292 50.7539 96.8359 51.9258C97.9427 53.0846 99.3359 53.6641 101.016 53.6641C102.643 53.6641 104.01 53.0716 105.117 51.8867C106.237 50.7018 106.797 49.1914 106.797 47.3555C106.797 45.5326 106.25 44.0417 105.156 42.8828C104.062 41.7109 102.682 41.125 101.016 41.125ZM132.227 36.75H137.539V58H132.227V55.7539C131.185 56.7435 130.137 57.4596 129.082 57.9023C128.04 58.332 126.908 58.5469 125.684 58.5469C122.936 58.5469 120.56 57.4857 118.555 55.3633C116.549 53.2279 115.547 50.5781 115.547 47.4141C115.547 44.1328 116.517 41.444 118.457 39.3477C120.397 37.2513 122.754 36.2031 125.527 36.2031C126.803 36.2031 128.001 36.444 129.121 36.9258C130.241 37.4076 131.276 38.1302 132.227 39.0938V36.75ZM126.621 41.125C124.967 41.125 123.594 41.7109 122.5 42.8828C121.406 44.0417 120.859 45.5326 120.859 47.3555C120.859 49.1914 121.413 50.7018 122.52 51.8867C123.639 53.0716 125.013 53.6641 126.641 53.6641C128.32 53.6641 129.714 53.0846 130.82 51.9258C131.927 50.7539 132.48 49.224 132.48 47.3359C132.48 45.487 131.927 43.9896 130.82 42.8438C129.714 41.6979 128.314 41.125 126.621 41.125ZM148.262 58H142.91V36.75H161.543V58H156.191V41.8867H148.262V58ZM169.766 58H166.934V36.75H172.129V49.2305L183.008 36.75H185.566V58H180.371V45.7734L169.766 58ZM194.59 49.2891C193.444 48.9115 192.5 48.2018 191.758 47.1602C191.029 46.1055 190.664 44.9206 190.664 43.6055C190.664 42.0299 191.113 40.6497 192.012 39.4648C192.91 38.2799 193.978 37.5312 195.215 37.2188C196.465 36.9062 198.411 36.75 201.055 36.75H206.445V58H201.094V50.3047H200.059L195 58H188.691L194.59 49.2891ZM201.094 46.3008V41.2031H199.238C197.22 41.2031 196.211 42.0495 196.211 43.7422C196.211 45.4479 197.337 46.3008 199.59 46.3008H201.094ZM221.758 29.2695H227.91L233.926 38.4688L240 29.2695H246.152L237.012 43.1758L246.719 58H240.566L233.926 47.9023L227.344 58H221.152L230.859 43.1758L221.758 29.2695ZM264.434 28.5469C268.496 28.5469 271.986 30.0182 274.902 32.9609C277.832 35.9036 279.297 39.4909 279.297 43.7227C279.297 47.9154 277.852 51.4635 274.961 54.3672C272.083 57.2708 268.587 58.7227 264.473 58.7227C260.163 58.7227 256.582 57.2318 253.73 54.25C250.879 51.2682 249.453 47.7266 249.453 43.625C249.453 40.8776 250.117 38.3516 251.445 36.0469C252.773 33.7422 254.596 31.9193 256.914 30.5781C259.245 29.224 261.751 28.5469 264.434 28.5469ZM264.375 33.8984C261.719 33.8984 259.486 34.8229 257.676 36.6719C255.866 38.5208 254.961 40.8711 254.961 43.7227C254.961 46.8997 256.1 49.4128 258.379 51.2617C260.15 52.707 262.181 53.4297 264.473 53.4297C267.064 53.4297 269.271 52.4922 271.094 50.6172C272.917 48.7422 273.828 46.431 273.828 43.6836C273.828 40.9492 272.91 38.638 271.074 36.75C269.238 34.849 267.005 33.8984 264.375 33.8984ZM284.434 58V29.2695H299.453V34.6016H289.902V40.1094H291.094C293.516 40.1094 295.495 40.3763 297.031 40.9102C298.568 41.444 299.844 42.4531 300.859 43.9375C301.888 45.4089 302.402 47.1536 302.402 49.1719C302.402 51.1771 302.018 52.7786 301.25 53.9766C300.482 55.1615 299.421 56.1315 298.066 56.8867C296.725 57.6289 294.863 58 292.48 58H284.434ZM289.902 44.9922V52.7852H291.27C293.77 52.7852 295.352 52.4596 296.016 51.8086C296.68 51.1576 297.012 50.2786 297.012 49.1719C297.012 46.3854 295.02 44.9922 291.035 44.9922H289.902ZM325.82 58L317.871 36.8867L309.785 58H303.984L315.059 29.2695H320.605L331.66 58H325.82ZM337.324 36.2031C338.171 36.2031 338.893 36.5026 339.492 37.1016C340.091 37.7005 340.391 38.4232 340.391 39.2695C340.391 40.1029 340.091 40.819 339.492 41.418C338.893 42.0169 338.171 42.3164 337.324 42.3164C336.478 42.3164 335.755 42.0234 335.156 41.4375C334.557 40.8385 334.258 40.1159 334.258 39.2695C334.258 38.4232 334.557 37.7005 335.156 37.1016C335.755 36.5026 336.478 36.2031 337.324 36.2031ZM337.324 52.4336C338.171 52.4336 338.893 52.7331 339.492 53.332C340.091 53.918 340.391 54.6341 340.391 55.4805C340.391 56.3268 340.091 57.0495 339.492 57.6484C338.893 58.2474 338.171 58.5469 337.324 58.5469C336.478 58.5469 335.755 58.2474 335.156 57.6484C334.557 57.0495 334.258 56.3268 334.258 55.4805C334.258 54.6341 334.557 53.918 335.156 53.332C335.755 52.7331 336.478 52.4336 337.324 52.4336ZM368.359 49.5625H364.082C361.191 49.5625 358.965 49.0091 357.402 47.9023C355.853 46.7826 355.078 44.9466 355.078 42.3945V36.75H360.43V41.9844C360.43 43.8464 361.673 44.7773 364.16 44.7773L366.23 44.7578H368.359V36.75H373.711V58H368.359V49.5625ZM377.207 36.75H397.012V41.8281H389.961V58H384.609V41.8281H377.207V36.75ZM410.488 36.2031C412.493 36.2031 414.375 36.7044 416.133 37.707C417.904 38.7096 419.284 40.0703 420.273 41.7891C421.263 43.5078 421.758 45.3633 421.758 47.3555C421.758 49.3607 421.257 51.2357 420.254 52.9805C419.264 54.7253 417.91 56.0924 416.191 57.082C414.473 58.0586 412.578 58.5469 410.508 58.5469C407.461 58.5469 404.857 57.4661 402.695 55.3047C400.547 53.1302 399.473 50.4935 399.473 47.3945C399.473 44.0742 400.69 41.3073 403.125 39.0938C405.26 37.1667 407.715 36.2031 410.488 36.2031ZM410.566 41.2227C408.913 41.2227 407.533 41.8021 406.426 42.9609C405.332 44.1068 404.785 45.5781 404.785 47.375C404.785 49.224 405.326 50.7214 406.406 51.8672C407.5 53.013 408.88 53.5859 410.547 53.5859C412.214 53.5859 413.6 53.0065 414.707 51.8477C415.814 50.6888 416.367 49.1979 416.367 47.375C416.367 45.5521 415.82 44.0742 414.727 42.9414C413.646 41.7956 412.259 41.2227 410.566 41.2227ZM437.344 58V36.75H445.879C448.678 36.75 450.579 37.3034 451.582 38.4102C452.585 39.5039 453.086 40.7474 453.086 42.1406C453.086 44.2109 452.057 45.7018 450 46.6133C452.812 47.5768 454.219 49.3932 454.219 52.0625C454.219 53.5078 453.848 54.7057 453.105 55.6562C452.363 56.5938 451.419 57.2188 450.273 57.5312C449.141 57.8438 447.552 58 445.508 58H437.344ZM442.695 45.1094H444.746C445.618 45.1094 446.289 44.8945 446.758 44.4648C447.24 44.0221 447.48 43.5339 447.48 43C447.48 42.2057 447.253 41.5872 446.797 41.1445C446.341 40.7018 445.801 40.4805 445.176 40.4805L444.492 40.5H442.695V45.1094ZM442.695 53.8984H445.371C446.413 53.8984 447.142 53.6576 447.559 53.1758C447.988 52.681 448.203 52.1992 448.203 51.7305C448.203 51.0404 447.962 50.4089 447.48 49.8359C447.012 49.263 446.159 48.9766 444.922 48.9766H442.695V53.8984ZM484.785 56.1836C482.923 57.7982 480.892 58.6055 478.691 58.6055C476.022 58.6055 473.704 57.5508 471.738 55.4414C469.772 53.319 468.789 50.6693 468.789 47.4922C468.789 44.1719 469.746 41.4766 471.66 39.4062C473.574 37.3229 475.872 36.2812 478.555 36.2812C480.951 36.2812 483.027 37.0951 484.785 38.7227V28.5469H490.078V38.7227C491.836 37.043 493.913 36.2031 496.309 36.2031C498.014 36.2031 499.603 36.6523 501.074 37.5508C502.546 38.4492 503.743 39.7383 504.668 41.418C505.592 43.0977 506.055 45.0964 506.055 47.4141C506.055 50.6562 505.059 53.3255 503.066 55.4219C501.087 57.5052 498.789 58.5469 496.172 58.5469C493.971 58.5469 491.94 57.7591 490.078 56.1836V65.7734H484.785V56.1836ZM500.723 47.375C500.723 45.5651 500.208 44.0807 499.18 42.9219C498.151 41.75 496.823 41.1641 495.195 41.1641C493.789 41.1641 492.559 41.724 491.504 42.8438C490.462 43.9505 489.941 45.5326 489.941 47.5898C489.941 49.5039 490.443 51.0013 491.445 52.082C492.461 53.1628 493.717 53.7031 495.215 53.7031C496.764 53.7031 498.066 53.1107 499.121 51.9258C500.189 50.7279 500.723 49.2109 500.723 47.375ZM484.941 47.5703C484.941 46.1771 484.707 45.0378 484.238 44.1523C483.77 43.2539 483.138 42.5378 482.344 42.0039C481.562 41.4701 480.671 41.2031 479.668 41.2031C477.949 41.2031 476.602 41.8151 475.625 43.0391C474.648 44.25 474.16 45.7083 474.16 47.4141C474.16 49.237 474.688 50.7474 475.742 51.9453C476.797 53.1432 478.099 53.7422 479.648 53.7422C481.146 53.7422 482.402 53.2083 483.418 52.1406C484.434 51.0599 484.941 49.5365 484.941 47.5703ZM520.254 36.2031C522.259 36.2031 524.141 36.7044 525.898 37.707C527.669 38.7096 529.049 40.0703 530.039 41.7891C531.029 43.5078 531.523 45.3633 531.523 47.3555C531.523 49.3607 531.022 51.2357 530.02 52.9805C529.03 54.7253 527.676 56.0924 525.957 57.082C524.238 58.0586 522.344 58.5469 520.273 58.5469C517.227 58.5469 514.622 57.4661 512.461 55.3047C510.312 53.1302 509.238 50.4935 509.238 47.3945C509.238 44.0742 510.456 41.3073 512.891 39.0938C515.026 37.1667 517.48 36.2031 520.254 36.2031ZM520.332 41.2227C518.678 41.2227 517.298 41.8021 516.191 42.9609C515.098 44.1068 514.551 45.5781 514.551 47.375C514.551 49.224 515.091 50.7214 516.172 51.8672C517.266 53.013 518.646 53.5859 520.312 53.5859C521.979 53.5859 523.366 53.0065 524.473 51.8477C525.579 50.6888 526.133 49.1979 526.133 47.375C526.133 45.5521 525.586 44.0742 524.492 42.9414C523.411 41.7956 522.025 41.2227 520.332 41.2227ZM535.898 36.75H541.23V44.6992L548.574 36.75H555.078L545.605 47.1016L555.195 58H548.125L541.797 50.5L541.23 51.1641V58H535.898V36.75ZM555.02 36.75H560.469L565.996 50.0898L572.09 36.75H577.559L564.238 65.7734H558.73L563.105 56.418L555.02 36.75ZM601.387 41.0469L596.953 43.4883C596.12 42.6159 595.293 42.0104 594.473 41.6719C593.665 41.3333 592.715 41.1641 591.621 41.1641C589.629 41.1641 588.014 41.763 586.777 42.9609C585.553 44.1458 584.941 45.6693 584.941 47.5312C584.941 49.3411 585.534 50.819 586.719 51.9648C587.904 53.1107 589.46 53.6836 591.387 53.6836C593.77 53.6836 595.625 52.8698 596.953 51.2422L601.152 54.1133C598.874 57.069 595.658 58.5469 591.504 58.5469C587.767 58.5469 584.837 57.4401 582.715 55.2266C580.605 53.013 579.551 50.4219 579.551 47.4531C579.551 45.3958 580.065 43.5013 581.094 41.7695C582.122 40.0378 583.555 38.6771 585.391 37.6875C587.24 36.6979 589.303 36.2031 591.582 36.2031C593.691 36.2031 595.586 36.6263 597.266 37.4727C598.945 38.306 600.319 39.4974 601.387 41.0469ZM627.5 48.918H610.371C610.618 50.4284 611.276 51.6328 612.344 52.5312C613.424 53.4167 614.798 53.8594 616.465 53.8594C618.457 53.8594 620.169 53.1628 621.602 51.7695L626.094 53.8789C624.974 55.4674 623.633 56.6458 622.07 57.4141C620.508 58.1693 618.652 58.5469 616.504 58.5469C613.171 58.5469 610.456 57.4987 608.359 55.4023C606.263 53.293 605.215 50.6562 605.215 47.4922C605.215 44.25 606.257 41.5612 608.34 39.4258C610.436 37.2773 613.06 36.2031 616.211 36.2031C619.557 36.2031 622.279 37.2773 624.375 39.4258C626.471 41.5612 627.52 44.3867 627.52 47.9023L627.5 48.918ZM622.148 44.7188C621.797 43.5339 621.1 42.5703 620.059 41.8281C619.03 41.0859 617.832 40.7148 616.465 40.7148C614.98 40.7148 613.678 41.1315 612.559 41.9648C611.855 42.4857 611.204 43.4036 610.605 44.7188H622.148ZM636.211 36.6914H631.094C631.068 34.1784 631.927 32.1016 633.672 30.4609C635.417 28.8203 637.715 28 640.566 28C642.402 28 643.965 28.3385 645.254 29.0156C646.543 29.6927 647.572 30.6693 648.34 31.9453C649.121 33.2214 649.512 34.5625 649.512 35.9688C649.512 36.737 649.388 37.4922 649.141 38.2344C648.893 38.9766 648.503 39.7383 647.969 40.5195C647.656 40.9753 646.908 41.7435 645.723 42.8242C644.59 43.8529 643.88 44.582 643.594 45.0117C643.307 45.4284 643.066 45.9883 642.871 46.6914C642.676 47.3945 642.552 48.3711 642.5 49.6211H637.207L637.188 48.7422C637.188 46.9974 637.507 45.4154 638.145 43.9961C638.783 42.5638 639.818 41.2227 641.25 39.9727C642.63 38.7617 643.464 37.9284 643.75 37.4727C644.036 37.0169 644.18 36.4831 644.18 35.8711C644.18 35.0378 643.828 34.3346 643.125 33.7617C642.435 33.1758 641.504 32.8828 640.332 32.8828C639.134 32.8828 638.151 33.2409 637.383 33.957C636.615 34.6602 636.224 35.5716 636.211 36.6914ZM639.941 51.8477C640.892 51.8477 641.699 52.1732 642.363 52.8242C643.04 53.4753 643.379 54.263 643.379 55.1875C643.379 56.112 643.047 56.9062 642.383 57.5703C641.719 58.2214 640.918 58.5469 639.98 58.5469C639.043 58.5469 638.242 58.2214 637.578 57.5703C636.927 56.9062 636.602 56.112 636.602 55.1875C636.602 54.263 636.927 53.4753 637.578 52.8242C638.229 52.1732 639.017 51.8477 639.941 51.8477Z" fill="#01457A"/>
<defs>
<linearGradient id="paint0_linear_0_6049" x1="-1.17867e-06" y1="55.932" x2="1346.52" y2="55.932" gradientUnits="userSpaceOnUse">
<stop stop-color="#FBFDFF"/>
<stop offset="1" stop-color="#D8EFFF"/>
</linearGradient>
</defs>
</svg>
